<svg
   xmlns:svg="http://www.w3.org/2000/svg"
   xmlns="http://www.w3.org/2000/svg"
   width="755" height="960">

  <defs>

    <g id="cornersuitsymbol">
      <path transform="scale(0.25)" style="fill:#000000;fill-opacity:1.0000000;fill-rule:evenodd;stroke:#000000;stroke-width:1.0pt;stroke-linecap:butt;stroke-linejoin:miter;stroke-opacity:1.0000000" d="M 122,128 C 0,253 119,343 216,283 C 198,348 188,354 177,371 L 281,371 C 267,353 253,348 239,284 C 338,340 442,242 332,128 C 261,65 233,8 227,0 C 221,7 188,66 122,128 z" />
    </g>

    <g id="suitsymbol">
      <path transform="scale(0.35)" style="fill:#000000;fill-opacity:1.0000000;fill-rule:evenodd;stroke:#000000;stroke-width:1.0pt;stroke-linecap:butt;stroke-linejoin:miter;stroke-opacity:1.0000000" d="M 122,128 C 0,253 119,343 216,283 C 198,348 188,354 177,371 L 281,371 C 267,353 253,348 239,284 C 338,340 442,242 332,128 C 261,65 233,8 227,0 C 221,7 188,66 122,128 z" />
    </g>

  </defs>

   <!-- Top left corner. -->

   <text x="12" y="40" transform="scale(3)" fill="black" stroke="black" font-size="40" font-weight="bold">7</text>
   <use href="#cornersuitsymbol" transform="translate(10 140)"  />

   <!-- Left column. -->

  <use href="#suitsymbol" transform="translate(144 140)" />
  <use href="#suitsymbol" transform="translate(164 410)" />
  <use href="#suitsymbol" transform="translate(160 660) rotate(180 71 80)" />

   <!-- Middle column. -->

  <use href="#suitsymbol" transform="translate(290 270)"  />

   <!-- Right column. -->

  <use href="#suitsymbol" transform="translate(430 140)" />
  <use href="#suitsymbol" transform="translate(430 410)" />
  <use href="#suitsymbol" transform="translate(446 660) rotate(180 71 80)" />

   <!-- Bottom right corner. -->

   <text x="205" y="302" transform="scale(3) rotate(180 219 290)" fill="black" stroke="black" font-size="40" font-weight="bold">7</text>
   <use href="#cornersuitsymbol" transform="translate(615 700) rotate(180 58 60)" />

</svg>
