<svg
   xmlns:svg="http://www.w3.org/2000/svg"
   xmlns="http://www.w3.org/2000/svg"
   transform="translate(-40, -520)"
   height="792.00000pt"
   width="612.00000pt">
   <path style="fill:#ff0000;fill-opacity:1.0000000" d="M 216.50043,906.61239 C 216.15723,905.99414 214.68176,901.52418 213.22160,896.67911 C 203.96781,865.97319 186.78919,834.88002 158.02135,796.76700 C 147.21332,782.44803 137.04027,769.76836 109.53195,736.32989 C 77.680663,697.61227 68.557087,685.20914 59.344127,668.10174 C 53.903664,657.99946 48.265682,642.62811 46.410340,632.83915 C 44.556056,623.05587 44.525826,607.07238 46.345850,598.74964 C 53.749127,564.89549 83.820561,539.35493 119.77880,536.38086 C 160.97167,532.97385 196.01144,553.78323 214.42221,592.58758 L 218.53337,601.25265 L 221.62754,594.40729 C 226.22517,584.23584 230.65291,577.35650 238.12646,568.77315 C 257.15444,546.91951 279.80001,536.21452 307.08088,536.17707 C 319.30086,536.16032 326.30318,537.17456 336.71630,540.46962 C 352.29024,545.39773 364.01387,553.07492 374.45497,565.18276 C 401.66486,596.73613 398.44315,639.72269 364.92253,692.37036 C 357.10321,704.65146 342.99490,722.82236 323.59258,745.60159 C 301.24949,771.83343 290.33235,785.16501 279.15526,799.86674 C 252.36377,835.10678 234.34536,867.12695 224.43433,897.11016 C 222.92242,901.68408 221.33841,905.94614 220.91430,906.58141 C 219.92943,908.05665 217.31241,908.07502 216.50043,906.61239 z" />
</svg>
