<svg
   xmlns:svg="http://www.w3.org/2000/svg"
   xmlns="http://www.w3.org/2000/svg"
   width="755" height="960">

  <defs>

    <g id="cornersuitsymbol">
      <path transform="scale(0.25)" style="fill:#FF0000;fill-opacity:1.0000000;stroke-linecap:butt;stroke-linejoin:miter;stroke-opacity:1.0000000" d="M 172,374 C 172,373 170,369 169,364 C 159,333 142,302 114,264 C 103,250 93,237 65,204 C 33,165 24,153 15,136 C 9,125 4,110 2,100 C 0,91 0,75 2,66 C 9,32 39,7 75,4 C 116,0 152,21 170,60 L 174,69 L 177,62 C 182,52 186,45 194,36 C 213,14 235,4 263,4 C 275,4 282,5 292,8 C 308,13 320,21 330,33 C 357,64 354,107 320,160 C 313,172 298,190 279,213 C 257,239 246,253 235,267 C 208,303 190,335 180,365 C 178,369 177,373 176,374 C 175,376 173,376 172,374 z" />

    </g>

    <g id="suitsymbol">
      <path transform="scale(1.3)" style="fill:#FF0000;fill-opacity:1.0000000;stroke:#FF0000;stroke-width:4.0pt;stroke-linecap:butt;stroke-linejoin:miter;stroke-opacity:1.0000000" d="M 172,374 C 172,373 170,369 169,364 C 159,333 142,302 114,264 C 103,250 93,237 65,204 C 33,165 24,153 15,136 C 9,125 4,110 2,100 C 0,91 0,75 2,66 C 9,32 39,7 75,4 C 116,0 152,21 170,60 L 174,69 L 177,62 C 182,52 186,45 194,36 C 213,14 235,4 263,4 C 275,4 282,5 292,8 C 308,13 320,21 330,33 C 357,64 354,107 320,160 C 313,172 298,190 279,213 C 257,239 246,253 235,267 C 208,303 190,335 180,365 C 178,369 177,373 176,374 C 175,376 173,376 172,374 z" />

    </g>

  </defs>

   <!-- Top left corner. -->

   <text x="0" y="40" transform="scale(3)" fill="red" font-family="sans-serif" font-size="40" font-weight="bold">10</text>
   <use href="#cornersuitsymbol" transform="translate(20 140)"  />

   <!-- Main area. -->

   <text x="79" y="120" transform="scale(3)" fill="red" stroke="red" stroke-width="2.0pt" font-size="80" font-weight="bold">10</text>
   <use href="#suitsymbol" transform="translate(150 400)" />

   <!-- Bottom right corner. -->

   <text x="175" y="302" transform="scale(3) rotate(180 210 290)" fill="red" font-family="sans-serif" font-size="40" font-weight="bold">10</text>
   <use href="#cornersuitsymbol" transform="translate(600 700) rotate(180 58 60)" />

</svg>
